HIERARCHY
ROOT reference
{
  OFFSET 0 0 0
  CHANNELS 6 Xposition Yposition Zposition Zrotation Xrotation Yrotation
  JOINT Hips
  {
    OFFSET -10.3009 76.4069 58.5783
    CHANNELS 6 Xposition Yposition Zposition Zrotation Xrotation Yrotation
    JOINT Spine
    {
      OFFSET 0 7.57377 0
      CHANNELS 6 Xposition Yposition Zposition Zrotation Xrotation Yrotation
      JOINT Spine1
      {
        OFFSET 0 21.6353 0
        CHANNELS 6 Xposition Yposition Zposition Zrotation Xrotation Yrotation
        JOINT Neck
        {
          OFFSET 0 21.5464 1.95876
          CHANNELS 6 Xposition Yposition Zposition Zrotation Xrotation Yrotation
          JOINT Head
          {
            OFFSET 0 12.9308 -1.84726
            CHANNELS 6 Xposition Yposition Zposition Zrotation Xrotation Yrotation
            End Site
            {
              OFFSET 0 23.0907 0
            }
          }
        }
        JOINT LeftShoulder
        {
          OFFSET 3.70822 19.5981 -0.368577
          CHANNELS 6 Xposition Yposition Zposition Zrotation Xrotation Yrotation
          JOINT LeftArm
          {
            OFFSET 11.1726 0 0
            CHANNELS 6 Xposition Yposition Zposition Zrotation Xrotation Yrotation
            JOINT LeftForeArm
            {
              OFFSET 28.6421 0 0
              CHANNELS 6 Xposition Yposition Zposition Zrotation Xrotation Yrotation
              JOINT LeftHand
              {
                OFFSET 23.9346 0 0
                CHANNELS 6 Xposition Yposition Zposition Zrotation Xrotation Yrotation
                End Site
                {
                  OFFSET 13.8545 0 0
                }
              }
            }
          }
        }
        JOINT RightShoulder
        {
          OFFSET -3.63664 19.5981 -0.368577
          CHANNELS 6 Xposition Yposition Zposition Zrotation Xrotation Yrotation
          JOINT RightArm
          {
            OFFSET -11.1726 0 0
            CHANNELS 6 Xposition Yposition Zposition Zrotation Xrotation Yrotation
            JOINT RightForeArm
            {
              OFFSET -28.6421 0 0
              CHANNELS 6 Xposition Yposition Zposition Zrotation Xrotation Yrotation
              JOINT RightHand
              {
                OFFSET -23.9346 0 0
                CHANNELS 6 Xposition Yposition Zposition Zrotation Xrotation Yrotation
                End Site
                {
                  OFFSET -13.8545 0 0
                }
              }
            }
          }
        }
      }
    }
    JOINT LeftUpLeg
    {
      OFFSET 9.2363 0 0
      CHANNELS 6 Xposition Yposition Zposition Zrotation Xrotation Yrotation
      JOINT LeftLeg
      {
        OFFSET 0 -40.7061 0
        CHANNELS 6 Xposition Yposition Zposition Zrotation Xrotation Yrotation
        JOINT LeftFoot
        {
          OFFSET 0 -40.9975 0
          CHANNELS 6 Xposition Yposition Zposition Zrotation Xrotation Yrotation
          JOINT LeftToeBase
          {
            OFFSET 0 -6.00359 13.8545
            CHANNELS 6 Xposition Yposition Zposition Zrotation Xrotation Yrotation
            End Site
            {
              OFFSET 0 0 3.69452
            }
          }
        }
      }
    }
    JOINT RightUpLeg
    {
      OFFSET -9.2363 0 0
      CHANNELS 6 Xposition Yposition Zposition Zrotation Xrotation Yrotation
      JOINT RightLeg
      {
        OFFSET 0 -40.7061 0
        CHANNELS 6 Xposition Yposition Zposition Zrotation Xrotation Yrotation
        JOINT RightFoot
        {
          OFFSET 0 -40.9975 0
          CHANNELS 6 Xposition Yposition Zposition Zrotation Xrotation Yrotation
          JOINT RightToeBase
          {
            OFFSET 0 -6.00359 13.8545
            CHANNELS 6 Xposition Yposition Zposition Zrotation Xrotation Yrotation
            End Site
            {
              OFFSET 0 0 3.69452
            }
          }
        }
      }
    }
  }
}
MOTION
Frames:	6
Frame Time:	0.004
0 0 0 0 0 -0 -2.0325 65.0963 -119.94 0.04739 20.5835 -1.19747 0 7.57377 -2.84217e-014 -1.07358 50.0582 1.90838 -6.66134e-016 21.6353 0 -7.58439 4.73322 1.72127 -1.77636e-015 21.5464 1.95876 -6.00542 -8.2927 6.18184 0 12.9308 -1.84726 -2.75503 -1.75622 7.33412 3.70822 19.5981 -0.368577 2.65624 -8.73544 -21.7184 11.1726 -7.10543e-015 0 -49.1666 31.4778 -17.0396 28.6421 1.42109e-014 0 56.0989 -34.8156 -41.8203 23.9346 7.10543e-015 0 33.6663 -13.2871 0.368891 -3.63664 19.5981 -0.368577 -6.37454 2.81081 0.37482 -11.1726 0 0 59.5933 35.947 24.7028 -28.6421 -1.42109e-014 0 -37.8006 -26.4423 34.3334 -23.9346 0 0 -45.6527 -14.6148 -1.16896 9.2363 -1.42109e-014 -2.84217e-014 -7.83961 -73.4897 5.77578 0 -40.7061 7.10543e-015 29.7993 74.2914 -16.2728 0 -40.9975 0 0.172432 -28.4201 -10.5929 0 -6.00359 13.8545 -1.98785e-016 0 -3.97569e-016 -9.2363 0 -2.84217e-014 -34.9376 -70.5237 -29.5316 0 -40.7061 1.06581e-014 177.67 74.4267 -160.076 -3.55271e-015 -40.9975 0 0.902504 -12.7985 -10.706 0 -6.00359 13.8545 1.59028e-015 -6.36111e-015 -0 
0 0 0 0 0 -0 -2.00808 65.1539 -119.802 -0.169396 20.5394 -1.04984 0 7.57377 2.84217e-014 -0.992804 50.1226 1.85236 -2.22045e-016 21.6353 -1.42109e-014 -7.41906 4.71481 1.69426 0 21.5464 1.95876 -5.96777 -8.55043 6.21815 0 12.9308 -1.84726 -2.75851 -1.46664 7.3834 3.70822 19.5981 -0.368577 2.71234 -8.78467 -21.706 11.1726 -7.10543e-015 0 -49.2512 31.4879 -17.0569 28.6421 0 0 56.1035 -34.8467 -41.8055 23.9346 0 0 33.5385 -13.3178 0.414968 -3.63664 19.5981 -0.368577 -6.37965 2.92476 0.34811 -11.1726 0 0 59.5309 35.9316 24.7316 -28.6421 0 -1.42109e-014 -37.6375 -26.5358 34.5182 -23.9346 7.10543e-015 0 -45.7253 -14.6776 -1.23004 9.2363 0 0 -7.79656 -73.334 5.73863 -1.77636e-015 -40.7061 0 30.0599 74.2504 -16.5264 0 -40.9975 -1.42109e-014 0.146507 -28.4735 -10.6193 0 -6.00359 13.8545 1.10348e-032 7.95139e-016 -7.95139e-016 -9.2363 0 0 -34.7607 -70.7496 -30.6676 0 -40.7061 0 -179.207 75.101 -163.609 -1.77636e-015 -40.9975 0 1.01367 -13.7192 -9.97856 0 -6.00359 13.8545 1.59028e-015 0 -7.95139e-016 
0 0 0 0 0 -0 -1.98393 65.2072 -119.674 -0.36866 20.5243 -0.902589 0 7.57377 0 -0.846376 50.1379 1.75016 0 21.6353 1.42109e-014 -7.33501 4.73421 1.65813 -1.77636e-015 21.5464 1.95876 -5.94095 -8.61134 6.19626 0 12.9308 -1.84726 -2.69323 -1.49344 7.36718 3.70822 19.5981 -0.368577 2.75553 -8.83742 -21.6709 11.1726 0 -1.42109e-014 -49.223 31.501 -17.1262 28.6421 0 0 55.9836 -34.8602 -41.8724 23.9346 7.10543e-015 -7.10543e-015 33.736 -13.3152 0.537256 -3.63664 19.5981 -0.368577 -6.29927 3.00793 0.228742 -11.1726 0 -1.42109e-014 59.4067 35.8558 24.8414 -28.6421 1.42109e-014 1.42109e-014 -37.3894 -26.4956 34.7869 -23.9346 -7.10543e-015 0 -45.769 -14.6055 -1.26554 9.2363 0 -2.84217e-014 -7.88595 -73.1727 5.69974 0 -40.7061 7.10543e-015 30.7239 74.0891 -17.2101 0 -40.9975 0 0.160775 -28.6777 -10.6216 -8.88178e-016 -6.00359 13.8545 3.23025e-016 0 3.97569e-016 -9.2363 0 0 -35.0397 -71.0893 -31.493 0 -40.7061 7.10543e-015 -178.892 75.633 -163.958 0 -40.9975 0 0.877171 -14.2602 -9.62373 0 -6.00359 13.8545 -1.19271e-015 0 -7.95139e-016 
0 0 0 0 0 -0 -1.95831 65.2612 -119.539 -0.565252 20.4915 -0.76275 0 7.57377 0 -0.746321 50.1812 1.6712 -2.22045e-016 21.6353 -1.42109e-014 -7.20489 4.75504 1.62152 0 21.5464 1.95876 -5.91606 -8.71935 6.21529 0 12.9308 -1.84726 -2.65608 -1.50691 7.39243 3.70822 19.5981 -0.368577 2.78168 -8.82221 -21.6214 11.1726 -7.10543e-015 -1.42109e-014 -49.1424 31.5102 -17.2629 28.6421 0 0 55.9562 -34.8951 -41.8847 23.9346 7.10543e-015 0 34.0271 -13.3386 0.613016 -3.63664 19.5981 -0.368577 -6.32919 2.92801 0.125066 -11.1726 -7.10543e-015 0 59.4979 35.7689 24.7582 -28.6421 1.42109e-014 0 -37.0578 -26.3387 35.0732 -23.9346 -7.10543e-015 0 -45.8032 -14.5044 -1.1214 9.2363 7.10543e-015 0 -7.85491 -73.034 5.69265 8.88178e-016 -40.7061 -7.10543e-015 31.0846 74.0419 -17.556 0 -40.9975 -1.42109e-014 0.108598 -28.7243 -10.69 0 -6.00359 13.8545 -1.49089e-016 -7.95139e-016 -0 -9.2363 0 0 -35.4764 -71.5186 -32.3497 0 -40.7061 -7.10543e-015 -179.069 76.1772 -163.87 -1.77636e-015 -40.9975 0 0.862375 -14.5101 -9.15414 0 -6.00359 13.8545 -7.95139e-016 -1.27222e-014 2.38542e-015 
0 0 0 0 0 -0 -1.92925 65.3118 -119.404 -0.7643 20.4604 -0.60486 0 7.57377 0 -0.5758 50.2089 1.54997 -2.22045e-016 21.6353 0 -7.12755 4.78717 1.57875 -1.77636e-015 21.5464 1.95876 -5.82296 -8.75012 6.20749 -3.55271e-015 12.9308 -1.84726 -2.68809 -1.58153 7.35817 3.70822 19.5981 -0.368577 2.81677 -8.8708 -21.6488 11.1726 0 1.42109e-014 -49.1554 31.4851 -17.2658 28.6421 -1.42109e-014 0 55.9166 -34.8508 -41.9323 23.9346 -7.10543e-015 0 34.419 -13.266 0.640278 -3.63664 19.5981 -0.368577 -6.2933 2.88186 0.069269 -11.1726 -7.10543e-015 0 59.4415 35.8547 24.7374 -28.6421 0 0 -36.9565 -26.2428 35.1055 -23.9346 -7.10543e-015 -1.42109e-014 -46.0348 -14.4488 -1.055 9.2363 -7.10543e-015 0 -7.90374 -72.9154 5.62569 1.77636e-015 -40.7061 -7.10543e-015 31.5485 74.005 -18.1145 0 -40.9975 0 0.251363 -28.7723 -10.5605 0 -6.00359 13.8545 9.93923e-017 7.95139e-016 3.97569e-016 -9.2363 0 0 -36.0396 -71.935 -33.2446 0 -40.7061 0 -179.611 76.6213 -163.306 3.55271e-015 -40.9975 0 1.57563 -14.8549 -8.80091 0 -6.00359 13.8545 8.82781e-032 -6.36111e-015 7.95139e-016 
0 0 0 0 0 -0 -1.90532 65.3633 -119.284 -0.968395 20.4807 -0.459488 0 7.57377 -2.84217e-014 -0.486145 50.2506 1.48896 -2.22045e-016 21.6353 0 -6.97484 4.6912 1.5473 0 21.5464 1.95876 -5.77328 -8.73485 6.19713 3.55271e-015 12.9308 -1.84726 -2.70794 -1.62816 7.33119 3.70822 19.5981 -0.368577 2.78184 -8.94877 -21.6919 11.1726 0 0 -49.2352 31.4649 -17.1889 28.6421 0 0 55.7795 -34.826 -42.066 23.9346 0 0 34.8164 -13.1751 0.787488 -3.63664 19.5981 -0.368577 -6.19263 3.01192 0.011194 -11.1726 0 0 59.1942 35.8939 24.8497 -28.6421 -1.42109e-014 -1.42109e-014 -36.8313 -26.3788 35.2389 -23.9346 -7.10543e-015 1.42109e-014 -46.1334 -14.5546 -1.14044 9.2363 0 -2.84217e-014 -7.87885 -72.8498 5.67204 8.88178e-016 -40.7061 0 32.0844 73.927 -18.6643 0 -40.9975 1.42109e-014 0.23057 -28.796 -10.6109 -8.88178e-016 -6.00359 13.8545 2.73329e-016 1.59028e-015 -7.95139e-016 -9.2363 0 0 -36.6542 -72.3531 -34.0783 0 -40.7061 7.10543e-015 179.032 77.2084 -161.864 1.77636e-015 -40.9975 1.42109e-014 1.33807 -15.1915 -8.56202 0 -6.00359 13.8545 -7.95139e-016 3.18055e-015 -0 
